# xmcd
#
# Track frame offsets:
#	150
#	13225
#	27091
#	40535
#	66348
#	84977
#
# Disc length: 1395 seconds
#
# Revision: 0
# Processed by: cddbd v1.5.2PL0 Copyright (c) Steve Scherf et al.
# Submitted via: audiograbber 1.83.01
#
DISCID=3f057106
DTITLE=Chris Smither - Call Me Lucky - B Side
DYEAR=2018
DGENRE=Blues
TTITLE0=She Said She Said
TTITLE1=Everything On Top
TTITLE2=Down To The Sound
TTITLE3=Nobody Home
TTITLE4=Change Your Mind
TTITLE5=By The Numbers
EXTD=
EXTT0=
EXTT1=
EXTT2=
EXTT3=
EXTT4=
EXTT5=
PLAYORDER=
